<?xml version="1.0" encoding="UTF-8" standalone="no"?>
<!-- Created with Inkscape (http://www.inkscape.org/) -->

<svg
   width="1000"
   height="252.55978"
   viewBox="0 0 264.58333 66.823111"
   version="1.1"
   id="svg1101"
   inkscape:version="1.1 (c4e8f9ed74, 2021-05-24)"
   sodipodi:docname="logo-horizontal-dark.svg"
   xmlns:inkscape="http://www.inkscape.org/namespaces/inkscape"
   xmlns:sodipodi="http://sodipodi.sourceforge.net/DTD/sodipodi-0.dtd"
   xmlns="http://www.w3.org/2000/svg"
   xmlns:svg="http://www.w3.org/2000/svg">
  <sodipodi:namedview
     id="namedview1103"
     pagecolor="#ffffff"
     bordercolor="#666666"
     borderopacity="1.0"
     inkscape:pageshadow="2"
     inkscape:pageopacity="0.0"
     inkscape:pagecheckerboard="0"
     inkscape:document-units="mm"
     showgrid="false"
     units="px"
     fit-margin-top="0"
     fit-margin-left="0"
     fit-margin-right="0"
     fit-margin-bottom="0"
     inkscape:zoom="0.77771465"
     inkscape:cx="579.2613"
     inkscape:cy="112.50913"
     inkscape:window-width="2560"
     inkscape:window-height="1381"
     inkscape:window-x="0"
     inkscape:window-y="0"
     inkscape:window-maximized="1"
     inkscape:current-layer="layer1" />
  <defs
     id="defs1098" />
  <g
     inkscape:label="Layer 1"
     inkscape:groupmode="layer"
     id="layer1"
     transform="translate(-47.520155,-131.0915)">
    <g
       id="g85928"
       transform="matrix(6.8585008,0,0,6.8585008,19.603027,97.445863)">
      <path
         d="M 4.0704418,5.4348131 H 6.2008422 V 14.119557 H 4.0704418 Z"
         style="fill:#ffffff;fill-opacity:1;fill-rule:nonzero;stroke:none;stroke-width:0.144758"
         id="path43953" />
      <path
         d="m 14.653409,14.119629 -3.134151,-3.474766 -1.374475,0.03185 v 3.442919 H 8.0142375 V 5.4348855 h 2.1305455 v 3.6510809 l 1.340457,-0.031268 3.022253,-3.6198133 h 2.578136 l -3.717814,4.3561961 3.94465,4.3285478 z"
         style="fill:#ffffff;fill-opacity:1;fill-rule:nonzero;stroke:none;stroke-width:0.144758"
         id="path43957" />
      <path
         d="M 34.591232,14.119629 30.310889,7.5000001 V 14.119629 H 28.180344 V 5.4348855 h 3.088697 l 4.244443,6.6627665 V 5.4348855 h 2.113464 v 8.6847435 z"
         style="fill:#ffffff;fill-opacity:1;fill-rule:nonzero;stroke:none;stroke-width:0.144758"
         id="path43961" />
      <path
         d="M 26.16465,7.6690048 24.740667,8.4912291 C 24.540033,8.6070353 24.4374,8.8421219 24.495882,9.066207 c 0.05935,0.227125 0.09091,0.4653963 0.09091,0.7110503 0,0.2501417 -0.03272,0.4926107 -0.09409,0.7234997 -0.0579,0.21786 0.04285,0.447012 0.238127,0.559778 l 1.432812,0.827291 c 0.307466,-0.638527 0.479728,-1.354499 0.479728,-2.1105687 0,-0.7552014 -0.171973,-1.4703049 -0.478714,-2.1082525"
         style="fill:#bf9d1b;fill-opacity:1;fill-rule:nonzero;stroke:none;stroke-width:0.144758"
         id="path43973" />
      <path
         d="m 21.77183,12.592217 c -1.615063,0 -2.912527,-1.360289 -2.80917,-2.9976441 0.08888,-1.4084933 1.239851,-2.5497637 2.649068,-2.6279329 0.833515,-0.046178 1.593059,0.2708418 2.13619,0.8068799 0.151562,0.1495348 0.383174,0.1816711 0.567596,0.075274 l 1.461329,-0.8437932 c -0.89634,-1.2923975 -2.401097,-2.1308346 -4.100409,-2.0984089 -2.562068,0.049073 -4.675242,2.1201226 -4.772519,4.6807432 -0.105529,2.777033 2.114477,5.061456 4.867915,5.061456 1.659213,0 3.123873,-0.830331 4.003566,-2.097251 l -1.449315,-0.8367 c -0.192817,-0.111463 -0.433115,-0.07484 -0.592783,0.08049 -0.506797,0.493045 -1.19845,0.796891 -1.961468,0.796891"
         style="fill:#ffffff;fill-opacity:1;fill-rule:nonzero;stroke:none;stroke-width:0.144758"
         id="path43977" />
      <g
         id="g46193"
         style="fill:#bf9d1b;fill-opacity:1"
         transform="matrix(0.14475779,0,0,-0.14475779,52.355374,73.10604)">
        <path
           d="m -88.58031,417.3281 c 0,3.019 1.015,5.201 2.779,7.233 0.24,0.269 0.598,0.269 0.838,0.03 l 1.344,-1.315 c 0.269,-0.209 0.269,-0.478 0,-0.747 -1.225,-1.404 -2.002,-3.317 -2.002,-5.171 0,-4.275 3.587,-7.503 7.77,-7.503 4.185,0 7.742,3.259 7.742,7.533 0,2.182 -0.867,3.707 -1.972,5.141 -0.209,0.269 -0.181,0.538 -0.03,0.717 l 1.344,1.375 c 0.21,0.239 0.598,0.18 0.808,-0.03 1.972,-2.032 2.899,-4.603 2.899,-7.263 0,-5.978 -4.752,-10.79 -10.731,-10.79 -5.976,0 -10.789,4.812 -10.789,10.79"
           style="fill:#bf9d1b;fill-opacity:1;fill-rule:nonzero;stroke:none"
           id="path43981" />
        <path
           d="m -87.71361,428.8622 c -0.299,0 -0.568,0.269 -0.568,0.568 v 1.973 c 0,0.299 0.269,0.568 0.568,0.568 h 19.787 c 0.299,0 0.568,-0.269 0.568,-0.568 v -1.973 c 0,-0.299 -0.269,-0.568 -0.568,-0.568 z"
           style="fill:#bf9d1b;fill-opacity:1;fill-rule:nonzero;stroke:none"
           id="path43985" />
        <path
           d="m -85.47251,440.6377 v -4.872 c 0,-0.329 -0.269,-0.568 -0.568,-0.568 h -1.673 c -0.299,0 -0.568,0.239 -0.568,0.568 v 12.852 c 0,0.329 0.269,0.568 0.568,0.568 h 1.673 c 0.299,0 0.568,-0.239 0.568,-0.568 v -4.872 h 17.546 c 0.299,0 0.568,-0.269 0.568,-0.568 v -1.972 c 0,-0.299 -0.269,-0.568 -0.568,-0.568 z"
           style="fill:#bf9d1b;fill-opacity:1;fill-rule:nonzero;stroke:none"
           id="path43989" />
        <path
           d="m -77.43191,457.1934 -9.983,-6.994 c -0.389,-0.239 -0.866,0 -0.866,0.478 v 2.212 c 0,0.239 0.148,0.388 0.268,0.478 l 7.622,5.41 -7.622,5.41 c -0.12,0.09 -0.268,0.269 -0.268,0.478 v 2.242 c 0,0.478 0.477,0.717 0.866,0.478 l 9.953,-7.084 h 9.535 c 0.299,0 0.568,-0.269 0.568,-0.568 v -1.972 c 0,-0.329 -0.269,-0.568 -0.568,-0.568 z"
           style="fill:#bf9d1b;fill-opacity:1;fill-rule:nonzero;stroke:none"
           id="path43993" />
      </g>
    </g>
  </g>
</svg>
